<svg xmlns="http://www.w3.org/2000/svg" width="800" height="500" viewBox="0 0 800 500">
  <defs>
    <linearGradient id="bg" x1="0" y1="0" x2="1" y2="1"><stop offset="0%" stop-color="#0F0A1A"/><stop offset="100%" stop-color="#1a1030"/></linearGradient>
    <linearGradient id="card" x1="0" y1="0" x2="0" y2="1"><stop offset="0%" stop-color="#1e1535"/><stop offset="100%" stop-color="#150f28"/></linearGradient>
    <linearGradient id="green" x1="0" y1="0" x2="1" y2="0"><stop offset="0%" stop-color="#10B981"/><stop offset="100%" stop-color="#34D399"/></linearGradient>
    <linearGradient id="purple" x1="0" y1="0" x2="1" y2="0"><stop offset="0%" stop-color="#7C3AED"/><stop offset="100%" stop-color="#A78BFA"/></linearGradient>
  </defs>
  <rect width="800" height="500" fill="url(#bg)"/>
  <!-- Sidebar -->
  <rect x="0" y="0" width="180" height="500" fill="#120D20" rx="0"/>
  <text x="90" y="35" fill="#7C3AED" font-family="Arial" font-size="18" font-weight="bold" text-anchor="middle">🔮 OMEN</text>
  <rect x="15" y="55" width="150" height="32" rx="8" fill="#7C3AED" opacity="0.2"/>
  <text x="90" y="76" fill="#A78BFA" font-family="Arial" font-size="13" text-anchor="middle">📊 Dashboard</text>
  <text x="90" y="110" fill="#6B7280" font-family="Arial" font-size="13" text-anchor="middle">🔮 Oracle</text>
  <text x="90" y="140" fill="#6B7280" font-family="Arial" font-size="13" text-anchor="middle">🐋 Whales</text>
  <text x="90" y="170" fill="#6B7280" font-family="Arial" font-size="13" text-anchor="middle">📈 Trades</text>
  <text x="90" y="200" fill="#6B7280" font-family="Arial" font-size="13" text-anchor="middle">⚙️ Settings</text>
  <!-- Header -->
  <text x="210" y="35" fill="white" font-family="Arial" font-size="16" font-weight="bold">Dashboard</text>
  <rect x="650" y="15" width="130" height="28" rx="14" fill="#7C3AED"/>
  <text x="715" y="34" fill="white" font-family="Arial" font-size="12" text-anchor="middle">47 Credits 🪙</text>
  <!-- Stat Cards Row -->
  <rect x="200" y="55" width="140" height="80" rx="10" fill="url(#card)" stroke="#2D2150" stroke-width="1"/>
  <text x="220" y="80" fill="#9CA3AF" font-family="Arial" font-size="11">Balance</text>
  <text x="220" y="105" fill="#10B981" font-family="Arial" font-size="22" font-weight="bold">$43.48</text>
  <text x="220" y="125" fill="#10B981" font-family="Arial" font-size="10">↑ +12.3%</text>
  <rect x="355" y="55" width="140" height="80" rx="10" fill="url(#card)" stroke="#2D2150" stroke-width="1"/>
  <text x="375" y="80" fill="#9CA3AF" font-family="Arial" font-size="11">Win Rate</text>
  <text x="375" y="105" fill="#F59E0B" font-family="Arial" font-size="22" font-weight="bold">71.2%</text>
  <text x="375" y="125" fill="#F59E0B" font-family="Arial" font-size="10">847 predictions</text>
  <rect x="510" y="55" width="140" height="80" rx="10" fill="url(#card)" stroke="#2D2150" stroke-width="1"/>
  <text x="530" y="80" fill="#9CA3AF" font-family="Arial" font-size="11">Total Profit</text>
  <text x="530" y="105" fill="#10B981" font-family="Arial" font-size="22" font-weight="bold">+$312</text>
  <text x="530" y="125" fill="#9CA3AF" font-family="Arial" font-size="10">30 days</text>
  <rect x="665" y="55" width="120" height="80" rx="10" fill="url(#card)" stroke="#2D2150" stroke-width="1"/>
  <text x="685" y="80" fill="#9CA3AF" font-family="Arial" font-size="11">Active Copies</text>
  <text x="685" y="105" fill="#7C3AED" font-family="Arial" font-size="22" font-weight="bold">3</text>
  <text x="685" y="125" fill="#9CA3AF" font-family="Arial" font-size="10">whales tracked</text>
  <!-- PnL Chart Area -->
  <rect x="200" y="150" width="380" height="170" rx="10" fill="url(#card)" stroke="#2D2150" stroke-width="1"/>
  <text x="220" y="175" fill="white" font-family="Arial" font-size="13" font-weight="bold">Profit & Loss (30d)</text>
  <polyline points="220,290 260,280 300,260 340,270 380,240 420,220 460,230 500,200 540,210" fill="none" stroke="#10B981" stroke-width="2"/>
  <line x1="220" y1="300" x2="560" y2="300" stroke="#2D2150" stroke-width="1"/>
  <!-- Recent Trades -->
  <rect x="595" y="150" width="190" height="170" rx="10" fill="url(#card)" stroke="#2D2150" stroke-width="1"/>
  <text x="615" y="175" fill="white" font-family="Arial" font-size="13" font-weight="bold">Recent Trades</text>
  <text x="615" y="200" fill="#10B981" font-family="Arial" font-size="11">✅ Lakers WIN +$4.20</text>
  <text x="615" y="220" fill="#EF4444" font-family="Arial" font-size="11">❌ BTC Up -$2.00</text>
  <text x="615" y="240" fill="#10B981" font-family="Arial" font-size="11">✅ PSG Lose +$6.80</text>
  <text x="615" y="260" fill="#10B981" font-family="Arial" font-size="11">✅ Vance 2028 +$3.10</text>
  <text x="615" y="280" fill="#EF4444" font-family="Arial" font-size="11">❌ Celtics WIN -$1.50</text>
  <!-- Oracle Streak -->
  <rect x="200" y="335" width="270" height="150" rx="10" fill="url(#card)" stroke="#2D2150" stroke-width="1"/>
  <text x="220" y="360" fill="white" font-family="Arial" font-size="13" font-weight="bold">🔮 Oracle Streak</text>
  <text x="220" y="390" fill="#F59E0B" font-family="Arial" font-size="28" font-weight="bold">🔥 12 Wins</text>
  <text x="220" y="415" fill="#9CA3AF" font-family="Arial" font-size="11">✅✅✅✅✅✅✅✅✅✅✅✅</text>
  <text x="220" y="440" fill="#9CA3AF" font-family="Arial" font-size="11">Best streak: 18 | Accuracy: 71.2%</text>
  <!-- Whale Activity -->
  <rect x="485" y="335" width="300" height="150" rx="10" fill="url(#card)" stroke="#2D2150" stroke-width="1"/>
  <text x="505" y="360" fill="white" font-family="Arial" font-size="13" font-weight="bold">🐋 Whale Activity</text>
  <text x="505" y="390" fill="#A78BFA" font-family="Arial" font-size="11">@0p0jogggg bought Lakers $181</text>
  <text x="505" y="410" fill="#A78BFA" font-family="Arial" font-size="11">@Sharky6999 sold BTC Up $45</text>
  <text x="505" y="430" fill="#A78BFA" font-family="Arial" font-size="11">@CryptoKing bought Vance $92</text>
  <text x="505" y="455" fill="#10B981" font-family="Arial" font-size="10">📡 3 whales active now</text>
</svg>
